<svg xmlns="http://www.w3.org/2000/svg" viewBox="0 0 880 720" width="880" height="720" role="img" aria-label="原子半径の周期傾向と、同じ電子配置のイオン半径の比較">
<title>原子半径の周期傾向と、同じ電子配置のイオン半径の比較</title>
<desc>原子半径は周期表の左下ほど大きく右上ほど小さい。Ne型の電子配置をもつイオンでは、陽子数が多いほど電子を強く引きつけ、O2-＞F-＞Na+＞Mg2+＞Al3+の順に小さくなる。</desc>
<style>
  .t{font-family:'Hiragino Sans','Hiragino Kaku Gothic ProN','Noto Sans JP','Noto Sans CJK JP','Yu Gothic','Meiryo',sans-serif;fill:#2f2740;}
  .s{font-family:'Hiragino Sans','Hiragino Kaku Gothic ProN','Noto Sans JP','Noto Sans CJK JP','Yu Gothic','Meiryo',sans-serif;fill:#6b6280;}
  .f{font-family:'Hiragino Sans','Hiragino Kaku Gothic ProN','Noto Sans JP','Noto Sans CJK JP','Yu Gothic','Meiryo',sans-serif;fill:#9c93ab;}
  .b{font-weight:700;}
  .eb{font-weight:800;}
  text{dominant-baseline:middle;}
</style>
<rect x="0" y="0" width="880" height="720" fill="#ffffff"/>
<defs>
<marker id="ar0" viewBox="0 0 10 10" refX="9" refY="5" markerWidth="7" markerHeight="7" markerUnits="strokeWidth" orient="auto-start-reverse">
  <path d="M0,0.6 L10,5 L0,9.4 z" fill="#7c3aed"/>
</marker>
<marker id="ar1" viewBox="0 0 10 10" refX="9" refY="5" markerWidth="7" markerHeight="7" markerUnits="strokeWidth" orient="auto-start-reverse">
  <path d="M0,0.6 L10,5 L0,9.4 z" fill="#d94a6a"/>
</marker>
<marker id="ar2" viewBox="0 0 10 10" refX="9" refY="5" markerWidth="7" markerHeight="7" markerUnits="strokeWidth" orient="auto-start-reverse">
  <path d="M0,0.6 L10,5 L0,9.4 z" fill="#3a7bd5"/>
</marker>
<marker id="ar3" viewBox="0 0 10 10" refX="9" refY="5" markerWidth="7" markerHeight="7" markerUnits="strokeWidth" orient="auto-start-reverse">
  <path d="M0,0.6 L10,5 L0,9.4 z" fill="#1e9e8a"/>
</marker>
<marker id="ar4" viewBox="0 0 10 10" refX="9" refY="5" markerWidth="7" markerHeight="7" markerUnits="strokeWidth" orient="auto-start-reverse">
  <path d="M0,0.6 L10,5 L0,9.4 z" fill="#2f2740"/>
</marker>
</defs>
<rect x="14" y="14" width="852" height="290" rx="12" fill="#faf7ff" stroke="#c9bce6" stroke-width="1.5"/>
<rect x="26" y="26" width="828" height="26" rx="13" fill="#f3ecff" stroke="none" stroke-width="0"/>
<text x="440" y="39" class="t eb" font-size="14" text-anchor="middle" fill="#5b21b6">原子半径の周期傾向</text>
<rect x="58" y="80" width="22" height="22" rx="3" fill="rgb(206,189,239)" stroke="#b9b1c9" stroke-width="0.9"/>
<rect x="466" y="80" width="22" height="22" rx="3" fill="rgb(255,255,255)" stroke="#b9b1c9" stroke-width="0.9"/>
<rect x="58" y="104" width="22" height="22" rx="3" fill="rgb(197,178,236)" stroke="#b9b1c9" stroke-width="0.9"/>
<rect x="82" y="104" width="22" height="22" rx="3" fill="rgb(200,182,237)" stroke="#b9b1c9" stroke-width="0.9"/>
<rect x="346" y="104" width="22" height="22" rx="3" fill="rgb(232,225,247)" stroke="#b9b1c9" stroke-width="0.9"/>
<rect x="370" y="104" width="22" height="22" rx="3" fill="rgb(235,229,248)" stroke="#b9b1c9" stroke-width="0.9"/>
<rect x="394" y="104" width="22" height="22" rx="3" fill="rgb(238,233,249)" stroke="#b9b1c9" stroke-width="0.9"/>
<rect x="418" y="104" width="22" height="22" rx="3" fill="rgb(241,236,250)" stroke="#b9b1c9" stroke-width="0.9"/>
<rect x="442" y="104" width="22" height="22" rx="3" fill="rgb(244,240,251)" stroke="#b9b1c9" stroke-width="0.9"/>
<rect x="466" y="104" width="22" height="22" rx="3" fill="rgb(247,244,252)" stroke="#b9b1c9" stroke-width="0.9"/>
<rect x="58" y="128" width="22" height="22" rx="3" fill="rgb(189,167,233)" stroke="#b9b1c9" stroke-width="0.9"/>
<rect x="82" y="128" width="22" height="22" rx="3" fill="rgb(192,171,234)" stroke="#b9b1c9" stroke-width="0.9"/>
<rect x="346" y="128" width="22" height="22" rx="3" fill="rgb(224,214,245)" stroke="#b9b1c9" stroke-width="0.9"/>
<rect x="370" y="128" width="22" height="22" rx="3" fill="rgb(227,218,246)" stroke="#b9b1c9" stroke-width="0.9"/>
<rect x="394" y="128" width="22" height="22" rx="3" fill="rgb(230,222,247)" stroke="#b9b1c9" stroke-width="0.9"/>
<rect x="418" y="128" width="22" height="22" rx="3" fill="rgb(233,226,248)" stroke="#b9b1c9" stroke-width="0.9"/>
<rect x="442" y="128" width="22" height="22" rx="3" fill="rgb(236,230,249)" stroke="#b9b1c9" stroke-width="0.9"/>
<rect x="466" y="128" width="22" height="22" rx="3" fill="rgb(239,233,250)" stroke="#b9b1c9" stroke-width="0.9"/>
<rect x="58" y="152" width="22" height="22" rx="3" fill="rgb(181,157,230)" stroke="#b9b1c9" stroke-width="0.9"/>
<rect x="82" y="152" width="22" height="22" rx="3" fill="rgb(184,160,231)" stroke="#b9b1c9" stroke-width="0.9"/>
<rect x="106" y="152" width="22" height="22" rx="3" fill="rgb(187,164,232)" stroke="#b9b1c9" stroke-width="0.9"/>
<rect x="130" y="152" width="22" height="22" rx="3" fill="rgb(190,168,233)" stroke="#b9b1c9" stroke-width="0.9"/>
<rect x="154" y="152" width="22" height="22" rx="3" fill="rgb(193,172,234)" stroke="#b9b1c9" stroke-width="0.9"/>
<rect x="178" y="152" width="22" height="22" rx="3" fill="rgb(196,176,235)" stroke="#b9b1c9" stroke-width="0.9"/>
<rect x="202" y="152" width="22" height="22" rx="3" fill="rgb(199,180,236)" stroke="#b9b1c9" stroke-width="0.9"/>
<rect x="226" y="152" width="22" height="22" rx="3" fill="rgb(202,184,237)" stroke="#b9b1c9" stroke-width="0.9"/>
<rect x="250" y="152" width="22" height="22" rx="3" fill="rgb(204,188,238)" stroke="#b9b1c9" stroke-width="0.9"/>
<rect x="274" y="152" width="22" height="22" rx="3" fill="rgb(207,192,239)" stroke="#b9b1c9" stroke-width="0.9"/>
<rect x="298" y="152" width="22" height="22" rx="3" fill="rgb(210,195,240)" stroke="#b9b1c9" stroke-width="0.9"/>
<rect x="322" y="152" width="22" height="22" rx="3" fill="rgb(213,199,241)" stroke="#b9b1c9" stroke-width="0.9"/>
<rect x="346" y="152" width="22" height="22" rx="3" fill="rgb(216,203,242)" stroke="#b9b1c9" stroke-width="0.9"/>
<rect x="370" y="152" width="22" height="22" rx="3" fill="rgb(219,207,243)" stroke="#b9b1c9" stroke-width="0.9"/>
<rect x="394" y="152" width="22" height="22" rx="3" fill="rgb(222,211,244)" stroke="#b9b1c9" stroke-width="0.9"/>
<rect x="418" y="152" width="22" height="22" rx="3" fill="rgb(225,215,245)" stroke="#b9b1c9" stroke-width="0.9"/>
<rect x="442" y="152" width="22" height="22" rx="3" fill="rgb(228,219,246)" stroke="#b9b1c9" stroke-width="0.9"/>
<rect x="466" y="152" width="22" height="22" rx="3" fill="rgb(231,223,247)" stroke="#b9b1c9" stroke-width="0.9"/>
<rect x="58" y="176" width="22" height="22" rx="3" fill="rgb(173,146,228)" stroke="#b9b1c9" stroke-width="0.9"/>
<rect x="82" y="176" width="22" height="22" rx="3" fill="rgb(176,150,229)" stroke="#b9b1c9" stroke-width="0.9"/>
<rect x="106" y="176" width="22" height="22" rx="3" fill="rgb(179,154,230)" stroke="#b9b1c9" stroke-width="0.9"/>
<rect x="130" y="176" width="22" height="22" rx="3" fill="rgb(182,157,231)" stroke="#b9b1c9" stroke-width="0.9"/>
<rect x="154" y="176" width="22" height="22" rx="3" fill="rgb(185,161,232)" stroke="#b9b1c9" stroke-width="0.9"/>
<rect x="178" y="176" width="22" height="22" rx="3" fill="rgb(188,165,233)" stroke="#b9b1c9" stroke-width="0.9"/>
<rect x="202" y="176" width="22" height="22" rx="3" fill="rgb(191,169,234)" stroke="#b9b1c9" stroke-width="0.9"/>
<rect x="226" y="176" width="22" height="22" rx="3" fill="rgb(193,173,234)" stroke="#b9b1c9" stroke-width="0.9"/>
<rect x="250" y="176" width="22" height="22" rx="3" fill="rgb(196,177,235)" stroke="#b9b1c9" stroke-width="0.9"/>
<rect x="274" y="176" width="22" height="22" rx="3" fill="rgb(199,181,236)" stroke="#b9b1c9" stroke-width="0.9"/>
<rect x="298" y="176" width="22" height="22" rx="3" fill="rgb(202,185,237)" stroke="#b9b1c9" stroke-width="0.9"/>
<rect x="322" y="176" width="22" height="22" rx="3" fill="rgb(205,189,238)" stroke="#b9b1c9" stroke-width="0.9"/>
<rect x="346" y="176" width="22" height="22" rx="3" fill="rgb(208,192,239)" stroke="#b9b1c9" stroke-width="0.9"/>
<rect x="370" y="176" width="22" height="22" rx="3" fill="rgb(211,196,240)" stroke="#b9b1c9" stroke-width="0.9"/>
<rect x="394" y="176" width="22" height="22" rx="3" fill="rgb(214,200,241)" stroke="#b9b1c9" stroke-width="0.9"/>
<rect x="418" y="176" width="22" height="22" rx="3" fill="rgb(217,204,242)" stroke="#b9b1c9" stroke-width="0.9"/>
<rect x="442" y="176" width="22" height="22" rx="3" fill="rgb(220,208,243)" stroke="#b9b1c9" stroke-width="0.9"/>
<rect x="466" y="176" width="22" height="22" rx="3" fill="rgb(223,212,244)" stroke="#b9b1c9" stroke-width="0.9"/>
<rect x="58" y="200" width="22" height="22" rx="3" fill="rgb(165,135,225)" stroke="#b9b1c9" stroke-width="0.9"/>
<rect x="82" y="200" width="22" height="22" rx="3" fill="rgb(168,139,226)" stroke="#b9b1c9" stroke-width="0.9"/>
<rect x="106" y="200" width="22" height="22" rx="3" fill="rgb(171,143,227)" stroke="#b9b1c9" stroke-width="0.9"/>
<rect x="130" y="200" width="22" height="22" rx="3" fill="rgb(174,147,228)" stroke="#b9b1c9" stroke-width="0.9"/>
<rect x="154" y="200" width="22" height="22" rx="3" fill="rgb(177,151,229)" stroke="#b9b1c9" stroke-width="0.9"/>
<rect x="178" y="200" width="22" height="22" rx="3" fill="rgb(180,154,230)" stroke="#b9b1c9" stroke-width="0.9"/>
<rect x="202" y="200" width="22" height="22" rx="3" fill="rgb(182,158,231)" stroke="#b9b1c9" stroke-width="0.9"/>
<rect x="226" y="200" width="22" height="22" rx="3" fill="rgb(185,162,232)" stroke="#b9b1c9" stroke-width="0.9"/>
<rect x="250" y="200" width="22" height="22" rx="3" fill="rgb(188,166,233)" stroke="#b9b1c9" stroke-width="0.9"/>
<rect x="274" y="200" width="22" height="22" rx="3" fill="rgb(191,170,234)" stroke="#b9b1c9" stroke-width="0.9"/>
<rect x="298" y="200" width="22" height="22" rx="3" fill="rgb(194,174,235)" stroke="#b9b1c9" stroke-width="0.9"/>
<rect x="322" y="200" width="22" height="22" rx="3" fill="rgb(197,178,236)" stroke="#b9b1c9" stroke-width="0.9"/>
<rect x="346" y="200" width="22" height="22" rx="3" fill="rgb(200,182,237)" stroke="#b9b1c9" stroke-width="0.9"/>
<rect x="370" y="200" width="22" height="22" rx="3" fill="rgb(203,185,238)" stroke="#b9b1c9" stroke-width="0.9"/>
<rect x="394" y="200" width="22" height="22" rx="3" fill="rgb(206,189,239)" stroke="#b9b1c9" stroke-width="0.9"/>
<rect x="418" y="200" width="22" height="22" rx="3" fill="rgb(209,193,240)" stroke="#b9b1c9" stroke-width="0.9"/>
<rect x="442" y="200" width="22" height="22" rx="3" fill="rgb(212,197,241)" stroke="#b9b1c9" stroke-width="0.9"/>
<rect x="466" y="200" width="22" height="22" rx="3" fill="rgb(215,201,242)" stroke="#b9b1c9" stroke-width="0.9"/>
<text x="46" y="68" class="f b" font-size="10" text-anchor="end">族→</text>
<text x="46" y="152" class="f b" font-size="10" text-anchor="end">周期↓</text>
<text x="69" y="91" class="t eb" font-size="9" text-anchor="middle" fill="#2f2740">H</text>
<text x="477" y="91" class="t eb" font-size="9" text-anchor="middle" fill="#2f2740">He</text>
<text x="69" y="115" class="t eb" font-size="9" text-anchor="middle" fill="#2f2740">Li</text>
<text x="453" y="115" class="t eb" font-size="9" text-anchor="middle" fill="#2f2740">F</text>
<text x="477" y="115" class="t eb" font-size="9" text-anchor="middle" fill="#2f2740">Ne</text>
<text x="69" y="139" class="t eb" font-size="9" text-anchor="middle" fill="#2f2740">Na</text>
<text x="453" y="139" class="t eb" font-size="9" text-anchor="middle" fill="#2f2740">Cl</text>
<text x="69" y="163" class="t eb" font-size="9" text-anchor="middle" fill="#2f2740">K</text>
<text x="69" y="211" class="t eb" font-size="9" text-anchor="middle" fill="#2f2740">Cs</text>
<path d="M462,88 L88,218" fill="none" stroke="#7c3aed" stroke-width="5" stroke-linecap="round" stroke-linejoin="round" marker-end="url(#ar0)" opacity="0.7"/>
<rect x="504" y="79" width="58" height="24" rx="12" fill="#ffffff" stroke="#3a7bd5" stroke-width="1.6"/>
<text x="533" y="91" class="t eb" font-size="11.5" text-anchor="middle" fill="#3a7bd5">小さい</text>
<rect x="54" y="236" width="58" height="24" rx="12" fill="#ffffff" stroke="#d94a6a" stroke-width="1.6"/>
<text x="83" y="248" class="t eb" font-size="11.5" text-anchor="middle" fill="#d94a6a">大きい</text>
<rect x="616" y="70" width="236" height="108" rx="9" fill="#ffffff" stroke="#c9bce6" stroke-width="1.4"/>
<text x="630" y="90" class="t eb" font-size="11.5" text-anchor="start" fill="#5b21b6">なぜそうなるか</text>
<text x="630" y="114" class="t b" font-size="11" text-anchor="start" fill="#d94a6a">↓ 下に行く：電子殻が増える</text>
<text x="642" y="132" class="s b" font-size="10.5" text-anchor="start">→ 半径は大きくなる</text>
<text x="630" y="154" class="t b" font-size="11" text-anchor="start" fill="#3a7bd5">→ 右に行く：陽子が増える</text>
<text x="642" y="172" class="s b" font-size="10.5" text-anchor="start">→ 引きつけが強く小さくなる</text>
<text x="440" y="286" class="t b" font-size="11.5" text-anchor="middle" fill="#6b6280">左下ほど大きく、右上ほど小さい（貴ガスは比較から外して考える）</text>
<rect x="14" y="320" width="852" height="386" rx="12" fill="#faf7ff" stroke="#c9bce6" stroke-width="1.5"/>
<rect x="26" y="332" width="828" height="26" rx="13" fill="#f3ecff" stroke="none" stroke-width="0"/>
<text x="440" y="345" class="t eb" font-size="14" text-anchor="middle" fill="#5b21b6">同じ電子配置（Ne型）のイオン半径くらべ</text>
<circle cx="74" cy="452" r="46" fill="#e5dcf8" stroke="#5b21b6" stroke-width="1.6"/>
<circle cx="74" cy="452" r="11" fill="#f3ecff" stroke="#5b21b6" stroke-width="1.5"/>
<text x="74" y="452" class="t eb" font-size="9.5" text-anchor="middle" fill="#5b21b6">+8</text>
<text x="63.58" y="520" class="t eb" font-size="15.5" text-anchor="start" fill="#2f2740">O<tspan font-size="11.2" dy="-5.6">2−</tspan></text>
<text x="74" y="394" class="f b" font-size="10.5" text-anchor="middle">Z=8</text>
<circle cx="257" cy="452" r="40" fill="#e5dcf8" stroke="#5b21b6" stroke-width="1.6"/>
<circle cx="257" cy="452" r="11" fill="#f3ecff" stroke="#5b21b6" stroke-width="1.5"/>
<text x="257" y="452" class="t eb" font-size="9.5" text-anchor="middle" fill="#5b21b6">+9</text>
<text x="249.66" y="520" class="t eb" font-size="15.5" text-anchor="start" fill="#2f2740">F<tspan font-size="11.2" dy="-5.6">−</tspan></text>
<text x="257" y="394" class="f b" font-size="10.5" text-anchor="middle">Z=9</text>
<circle cx="440" cy="452" r="27" fill="#e5dcf8" stroke="#5b21b6" stroke-width="1.6"/>
<circle cx="440" cy="452" r="11" fill="#f3ecff" stroke="#5b21b6" stroke-width="1.5"/>
<text x="440" y="452" class="t eb" font-size="9.5" text-anchor="middle" fill="#5b21b6">+11</text>
<text x="428.4" y="520" class="t eb" font-size="15.5" text-anchor="start" fill="#2f2740">Na<tspan font-size="11.2" dy="-5.6">+</tspan></text>
<text x="440" y="394" class="f b" font-size="10.5" text-anchor="middle">Z=11</text>
<circle cx="623" cy="452" r="22" fill="#e5dcf8" stroke="#5b21b6" stroke-width="1.6"/>
<circle cx="623" cy="452" r="11" fill="#f3ecff" stroke="#5b21b6" stroke-width="1.5"/>
<text x="623" y="452" class="t eb" font-size="9.5" text-anchor="middle" fill="#5b21b6">+12</text>
<text x="608.32" y="520" class="t eb" font-size="15.5" text-anchor="start" fill="#2f2740">Mg<tspan font-size="11.2" dy="-5.6">2+</tspan></text>
<text x="623" y="394" class="f b" font-size="10.5" text-anchor="middle">Z=12</text>
<circle cx="806" cy="452" r="18" fill="#e5dcf8" stroke="#5b21b6" stroke-width="1.6"/>
<circle cx="806" cy="452" r="11" fill="#f3ecff" stroke="#5b21b6" stroke-width="1.5"/>
<text x="806" y="452" class="t eb" font-size="9.5" text-anchor="middle" fill="#5b21b6">+13</text>
<text x="791.32" y="520" class="t eb" font-size="15.5" text-anchor="start" fill="#2f2740">Al<tspan font-size="11.2" dy="-5.6">3+</tspan></text>
<text x="806" y="394" class="f b" font-size="10.5" text-anchor="middle">Z=13</text>
<rect x="30" y="358" width="92" height="22" rx="11" fill="#e7f6f3" stroke="#1e9e8a" stroke-width="1.3"/>
<text x="76" y="369" class="t eb" font-size="10" text-anchor="middle" fill="#12705f">電子はどれも10個</text>
<text x="30" y="556" class="t eb" font-size="11.5" text-anchor="start" fill="#d94a6a">陽子（＋）の数</text>
<path d="M182,556 L770,556" fill="none" stroke="#d94a6a" stroke-width="3" stroke-linecap="round" stroke-linejoin="round" marker-end="url(#ar1)"/>
<rect x="178" y="545" width="46" height="22" rx="11" fill="#ffffff" stroke="#d94a6a" stroke-width="1.2"/>
<text x="201" y="556" class="t b" font-size="10.5" text-anchor="middle" fill="#d94a6a">少ない</text>
<rect x="726" y="545" width="46" height="22" rx="11" fill="#ffffff" stroke="#d94a6a" stroke-width="1.2"/>
<text x="749" y="556" class="t b" font-size="10.5" text-anchor="middle" fill="#d94a6a">多い</text>
<text x="30" y="588" class="t eb" font-size="11.5" text-anchor="start" fill="#d9932a">電子を引きつける力</text>
<path d="M182,588 L770,588" fill="none" stroke="#d9932a" stroke-width="3" stroke-linecap="round" stroke-linejoin="round"/>
<rect x="178" y="577" width="46" height="22" rx="11" fill="#ffffff" stroke="#d9932a" stroke-width="1.2"/>
<text x="201" y="588" class="t b" font-size="10.5" text-anchor="middle" fill="#d9932a">弱い</text>
<rect x="726" y="577" width="46" height="22" rx="11" fill="#ffffff" stroke="#d9932a" stroke-width="1.2"/>
<text x="749" y="588" class="t b" font-size="10.5" text-anchor="middle" fill="#d9932a">強い</text>
<text x="30" y="620" class="t eb" font-size="11.5" text-anchor="start" fill="#3a7bd5">イオン半径</text>
<path d="M182,620 L770,620" fill="none" stroke="#3a7bd5" stroke-width="3" stroke-linecap="round" stroke-linejoin="round" marker-end="url(#ar2)"/>
<rect x="178" y="609" width="46" height="22" rx="11" fill="#ffffff" stroke="#3a7bd5" stroke-width="1.2"/>
<text x="201" y="620" class="t b" font-size="10.5" text-anchor="middle" fill="#3a7bd5">大きい</text>
<rect x="726" y="609" width="46" height="22" rx="11" fill="#ffffff" stroke="#3a7bd5" stroke-width="1.2"/>
<text x="749" y="620" class="t b" font-size="10.5" text-anchor="middle" fill="#3a7bd5">小さい</text>
<rect x="30" y="656" width="820" height="38" rx="9" fill="#f3ecff" stroke="#a794d6" stroke-width="1.4"/>
<text x="246.45" y="675" class="t eb" font-size="12.5" text-anchor="start" fill="#5b21b6">O<tspan font-size="9" dy="-4.5">2−</tspan><tspan dy="4.5"> ＞ F</tspan><tspan font-size="9" dy="-4.5">−</tspan><tspan dy="4.5"> ＞ Na</tspan><tspan font-size="9" dy="-4.5">+</tspan><tspan dy="4.5"> ＞ Mg</tspan><tspan font-size="9" dy="-4.5">2+</tspan><tspan dy="4.5"> ＞ Al</tspan><tspan font-size="9" dy="-4.5">3+</tspan><tspan dy="4.5">（原子番号が大きいほど小さい）</tspan></text>
</svg>
