<svg xmlns="http://www.w3.org/2000/svg" viewBox="0 0 880 560" width="880" height="560" role="img" aria-label="二段階滴定の滴定曲線と反応の順番">
<title>二段階滴定の滴定曲線と反応の順番</title>
<desc>NaOHとNa2CO3の混合水溶液にHClを滴下すると、第1中和点（フェノールフタレインの変色、pH約8.3）までに(x+y)molのHClが使われ、第1中和点から第2中和点（メチルオレンジの変色、pH約3.8）までにy molのHClが使われる。</desc>
<style>
  .t{font-family:'Hiragino Sans','Hiragino Kaku Gothic ProN','Noto Sans JP','Noto Sans CJK JP','Yu Gothic','Meiryo',sans-serif;fill:#2f2740;}
  .s{font-family:'Hiragino Sans','Hiragino Kaku Gothic ProN','Noto Sans JP','Noto Sans CJK JP','Yu Gothic','Meiryo',sans-serif;fill:#6b6280;}
  .f{font-family:'Hiragino Sans','Hiragino Kaku Gothic ProN','Noto Sans JP','Noto Sans CJK JP','Yu Gothic','Meiryo',sans-serif;fill:#9c93ab;}
  .b{font-weight:700;}
  .eb{font-weight:800;}
  text{dominant-baseline:middle;}
</style>
<rect x="0" y="0" width="880" height="560" fill="#ffffff"/>
<defs>
<marker id="ar0" viewBox="0 0 10 10" refX="9" refY="5" markerWidth="7" markerHeight="7" markerUnits="strokeWidth" orient="auto-start-reverse">
  <path d="M0,0.6 L10,5 L0,9.4 z" fill="#7c3aed"/>
</marker>
<marker id="ar1" viewBox="0 0 10 10" refX="9" refY="5" markerWidth="7" markerHeight="7" markerUnits="strokeWidth" orient="auto-start-reverse">
  <path d="M0,0.6 L10,5 L0,9.4 z" fill="#d94a6a"/>
</marker>
<marker id="ar2" viewBox="0 0 10 10" refX="9" refY="5" markerWidth="7" markerHeight="7" markerUnits="strokeWidth" orient="auto-start-reverse">
  <path d="M0,0.6 L10,5 L0,9.4 z" fill="#2f2740"/>
</marker>
<marker id="ar3" viewBox="0 0 10 10" refX="9" refY="5" markerWidth="7" markerHeight="7" markerUnits="strokeWidth" orient="auto-start-reverse">
  <path d="M0,0.6 L10,5 L0,9.4 z" fill="#e0559a"/>
</marker>
<marker id="ar4" viewBox="0 0 10 10" refX="9" refY="5" markerWidth="7" markerHeight="7" markerUnits="strokeWidth" orient="auto-start-reverse">
  <path d="M0,0.6 L10,5 L0,9.4 z" fill="#e08a2a"/>
</marker>
</defs>
<rect x="14" y="14" width="852" height="26" rx="13" fill="#f3ecff" stroke="none" stroke-width="0"/>
<text x="165.3" y="27" class="t eb" font-size="14" text-anchor="start" fill="#5b21b6">二段階滴定：NaOH x mol ＋ Na<tspan font-size="10.1" dy="2.8">2</tspan><tspan dy="-2.8">CO</tspan><tspan font-size="10.1" dy="2.8">3</tspan><tspan dy="-2.8"> y mol の混合水溶液に 0.10 mol/L HCl を滴下</tspan></text>
<rect x="14" y="54" width="520" height="470" rx="12" fill="#faf7ff" stroke="#c9bce6" stroke-width="1.5"/>
<rect x="64" y="185.2" width="446" height="39.08571428571432" rx="2" fill="#fdeaf4" stroke="none" stroke-width="0"/>
<line x1="64" y1="185.2" x2="510" y2="185.2" stroke="#e0559a" stroke-width="1" stroke-linecap="round" stroke-dasharray="4 3" opacity="0.8"/>
<line x1="64" y1="224.2857142857143" x2="510" y2="224.2857142857143" stroke="#e0559a" stroke-width="1" stroke-linecap="round" stroke-dasharray="4 3" opacity="0.8"/>
<text x="505" y="204.74285714285713" class="t eb" font-size="9.5" text-anchor="end" fill="#e0559a">フェノールフタレイン pH 8〜9.8</text>
<rect x="64" y="302.45714285714286" width="446" height="28.228571428571456" rx="2" fill="#fdf1de" stroke="none" stroke-width="0"/>
<line x1="64" y1="302.45714285714286" x2="510" y2="302.45714285714286" stroke="#e08a2a" stroke-width="1" stroke-linecap="round" stroke-dasharray="4 3" opacity="0.8"/>
<line x1="64" y1="330.6857142857143" x2="510" y2="330.6857142857143" stroke="#e08a2a" stroke-width="1" stroke-linecap="round" stroke-dasharray="4 3" opacity="0.8"/>
<text x="70" y="316.57142857142856" class="t eb" font-size="9.5" text-anchor="start" fill="#e08a2a">メチルオレンジ pH 3.1〜4.4</text>
<line x1="64" y1="398" x2="510" y2="398" stroke="#2f2740" stroke-width="2" stroke-linecap="square"/>
<line x1="64" y1="94" x2="64" y2="398" stroke="#2f2740" stroke-width="2" stroke-linecap="square"/>
<line x1="64" y1="398" x2="64" y2="403" stroke="#2f2740" stroke-width="1.6" stroke-linecap="round"/>
<text x="64" y="413" class="s b" font-size="10" text-anchor="middle">0</text>
<line x1="153.2" y1="398" x2="153.2" y2="403" stroke="#2f2740" stroke-width="1.6" stroke-linecap="round"/>
<text x="153.2" y="413" class="s b" font-size="10" text-anchor="middle">4</text>
<line x1="242.4" y1="398" x2="242.4" y2="403" stroke="#2f2740" stroke-width="1.6" stroke-linecap="round"/>
<text x="242.4" y="413" class="s b" font-size="10" text-anchor="middle">8</text>
<line x1="331.59999999999997" y1="398" x2="331.59999999999997" y2="403" stroke="#2f2740" stroke-width="1.6" stroke-linecap="round"/>
<text x="331.59999999999997" y="413" class="s b" font-size="10" text-anchor="middle">12</text>
<line x1="420.8" y1="398" x2="420.8" y2="403" stroke="#2f2740" stroke-width="1.6" stroke-linecap="round"/>
<text x="420.8" y="413" class="s b" font-size="10" text-anchor="middle">16</text>
<line x1="510" y1="398" x2="510" y2="403" stroke="#2f2740" stroke-width="1.6" stroke-linecap="round"/>
<text x="510" y="413" class="s b" font-size="10" text-anchor="middle">20</text>
<line x1="59" y1="398" x2="64" y2="398" stroke="#2f2740" stroke-width="1.6" stroke-linecap="round"/>
<text x="55" y="398" class="s b" font-size="10" text-anchor="end">0</text>
<line x1="59" y1="354.57142857142856" x2="64" y2="354.57142857142856" stroke="#2f2740" stroke-width="1.6" stroke-linecap="round"/>
<text x="55" y="354.57142857142856" class="s b" font-size="10" text-anchor="end">2</text>
<line x1="59" y1="311.14285714285717" x2="64" y2="311.14285714285717" stroke="#2f2740" stroke-width="1.6" stroke-linecap="round"/>
<text x="55" y="311.14285714285717" class="s b" font-size="10" text-anchor="end">4</text>
<line x1="59" y1="267.7142857142857" x2="64" y2="267.7142857142857" stroke="#2f2740" stroke-width="1.6" stroke-linecap="round"/>
<text x="55" y="267.7142857142857" class="s b" font-size="10" text-anchor="end">6</text>
<line x1="59" y1="224.2857142857143" x2="64" y2="224.2857142857143" stroke="#2f2740" stroke-width="1.6" stroke-linecap="round"/>
<text x="55" y="224.2857142857143" class="s b" font-size="10" text-anchor="end">8</text>
<line x1="59" y1="180.85714285714286" x2="64" y2="180.85714285714286" stroke="#2f2740" stroke-width="1.6" stroke-linecap="round"/>
<text x="55" y="180.85714285714286" class="s b" font-size="10" text-anchor="end">10</text>
<line x1="59" y1="137.42857142857144" x2="64" y2="137.42857142857144" stroke="#2f2740" stroke-width="1.6" stroke-linecap="round"/>
<text x="55" y="137.42857142857144" class="s b" font-size="10" text-anchor="end">12</text>
<line x1="59" y1="94" x2="64" y2="94" stroke="#2f2740" stroke-width="1.6" stroke-linecap="round"/>
<text x="55" y="94" class="s b" font-size="10" text-anchor="end">14</text>
<text x="287" y="432" class="t b" font-size="12" text-anchor="middle">加えた塩酸 HCl の体積（mL）</text>
<text x="30" y="246" class="t b" font-size="11.5" text-anchor="middle" transform="rotate(-90 30 246)">pH</text>
<line x1="331.59999999999997" y1="94" x2="331.59999999999997" y2="398" stroke="#e0559a" stroke-width="1.4" stroke-linecap="round" stroke-dasharray="5 4" opacity="0.85"/>
<text x="331.59999999999997" y="86" class="t eb" font-size="10.5" text-anchor="middle" fill="#e0559a">第1中和点</text>
<line x1="420.8" y1="94" x2="420.8" y2="398" stroke="#e08a2a" stroke-width="1.4" stroke-linecap="round" stroke-dasharray="5 4" opacity="0.85"/>
<text x="420.8" y="86" class="t eb" font-size="10.5" text-anchor="middle" fill="#e08a2a">第2中和点</text>
<path d="M64.0,124.4 C71.8,124.9 115.3,127.5 130.9,128.7 C146.5,130.0 182.2,133.0 197.8,135.3 C213.4,137.5 251.7,144.0 264.7,148.3 C277.7,152.6 302.3,166.9 309.3,172.2 C316.3,177.5 322.3,188.6 324.9,193.9 C327.5,199.2 330.8,215.0 331.6,217.8" fill="none" stroke="#7c3aed" stroke-width="2.8" stroke-linecap="round" stroke-linejoin="round"/>
<path d="M331.6,217.8 C332.6,220.1 337.9,234.0 340.5,237.3 C343.1,240.6 349.7,244.2 353.9,246.0 C358.1,247.8 371.0,250.5 376.2,252.5 C381.4,254.5 394.1,259.6 398.5,263.4 C402.9,267.2 411.5,279.0 414.1,285.1 C416.7,291.2 420.0,311.9 420.8,315.5" fill="none" stroke="#7c3aed" stroke-width="2.8" stroke-linecap="round" stroke-linejoin="round"/>
<path d="M420.8,315.5 C421.8,318.0 427.1,333.7 429.7,337.2 C432.3,340.7 438.9,343.9 443.1,345.9 C447.3,347.9 457.6,352.8 465.4,354.6 C473.2,356.3 504.8,360.3 510.0,361.1" fill="none" stroke="#7c3aed" stroke-width="2.8" stroke-linecap="round" stroke-linejoin="round"/>
<circle cx="331.59999999999997" cy="217.77142857142857" r="5.4" fill="#e0559a" stroke="#ffffff" stroke-width="1.8"/>
<circle cx="420.8" cy="315.48571428571427" r="5.4" fill="#e08a2a" stroke="#ffffff" stroke-width="1.8"/>
<path d="M64,458 L331.59999999999997,458" fill="none" stroke="#e0559a" stroke-width="2" stroke-linecap="round" stroke-linejoin="round" marker-end="url(#ar3)" marker-start="url(#ar3)"/>
<line x1="64" y1="452" x2="64" y2="464" stroke="#e0559a" stroke-width="1.6" stroke-linecap="round"/>
<line x1="331.59999999999997" y1="452" x2="331.59999999999997" y2="464" stroke="#e0559a" stroke-width="1.6" stroke-linecap="round"/>
<text x="341.59999999999997" y="458" class="t eb" font-size="11" text-anchor="start" fill="#e0559a">＝ (x + y) mol 分</text>
<path d="M331.59999999999997,488 L420.8,488" fill="none" stroke="#e08a2a" stroke-width="2" stroke-linecap="round" stroke-linejoin="round" marker-end="url(#ar4)" marker-start="url(#ar4)"/>
<line x1="331.59999999999997" y1="482" x2="331.59999999999997" y2="494" stroke="#e08a2a" stroke-width="1.6" stroke-linecap="round"/>
<line x1="420.8" y1="482" x2="420.8" y2="494" stroke="#e08a2a" stroke-width="1.6" stroke-linecap="round"/>
<text x="430.8" y="488" class="t eb" font-size="11" text-anchor="start" fill="#e08a2a">＝ y mol 分</text>
<rect x="552" y="54" width="314" height="470" rx="12" fill="#f3ecff" stroke="#a794d6" stroke-width="1.6"/>
<rect x="564" y="66" width="290" height="26" rx="13" fill="#ffffff" stroke="none" stroke-width="0"/>
<text x="709" y="79" class="t eb" font-size="14" text-anchor="middle" fill="#5b21b6">反応が起こる順番</text>
<rect x="566" y="104" width="286" height="134" rx="10" fill="#ffffff" stroke="#e0559a" stroke-width="1.7"/>
<rect x="566" y="104" width="286" height="26" rx="10" fill="#e0559a" stroke="none" stroke-width="0"/>
<rect x="566" y="120" width="286" height="10" rx="0" fill="#e0559a" stroke="none" stroke-width="0"/>
<text x="709" y="117" class="t eb" font-size="11.5" text-anchor="middle" fill="#ffffff">第1段階（〜第1中和点）</text>
<text x="580" y="150" class="t b" font-size="11.5" text-anchor="start" fill="#2f2740">❶ NaOH + HCl → NaCl + H<tspan font-size="8.3" dy="2.3">2</tspan><tspan dy="-2.3">O</tspan></text>
<text x="580" y="171" class="t b" font-size="11.5" text-anchor="start" fill="#2f2740">❷ Na<tspan font-size="8.3" dy="2.3">2</tspan><tspan dy="-2.3">CO</tspan><tspan font-size="8.3" dy="2.3">3</tspan><tspan dy="-2.3"> + HCl → NaCl + NaHCO</tspan><tspan font-size="8.3" dy="2.3">3</tspan></text>
<line x1="578" y1="198" x2="840" y2="198" stroke="#dcd7e6" stroke-width="1.2" stroke-linecap="round"/>
<text x="580" y="214" class="t eb" font-size="11.5" text-anchor="start" fill="#e0559a">使った HCl ＝ (x + y) mol</text>
<text x="580" y="230" class="s b" font-size="9.5" text-anchor="start">強い塩基から先に反応する</text>
<rect x="566" y="252" width="286" height="134" rx="10" fill="#ffffff" stroke="#e08a2a" stroke-width="1.7"/>
<rect x="566" y="252" width="286" height="26" rx="10" fill="#e08a2a" stroke="none" stroke-width="0"/>
<rect x="566" y="268" width="286" height="10" rx="0" fill="#e08a2a" stroke="none" stroke-width="0"/>
<text x="709" y="265" class="t eb" font-size="11.5" text-anchor="middle" fill="#ffffff">第2段階（第1→第2中和点）</text>
<text x="580" y="298" class="t b" font-size="11.5" text-anchor="start" fill="#2f2740">❸ NaHCO<tspan font-size="8.3" dy="2.3">3</tspan><tspan dy="-2.3"> + HCl</tspan></text>
<text x="580" y="319" class="t b" font-size="11.5" text-anchor="start" fill="#2f2740">　　→ NaCl + H<tspan font-size="8.3" dy="2.3">2</tspan><tspan dy="-2.3">O + CO</tspan><tspan font-size="8.3" dy="2.3">2</tspan></text>
<line x1="578" y1="346" x2="840" y2="346" stroke="#dcd7e6" stroke-width="1.2" stroke-linecap="round"/>
<text x="580" y="362" class="t eb" font-size="11.5" text-anchor="start" fill="#e08a2a">使った HCl ＝ y mol</text>
<text x="580" y="378" class="s b" font-size="9.5" text-anchor="start">弱塩基 → 弱酸へ</text>
<rect x="566" y="458" width="286" height="44" rx="9" fill="#ffffff" stroke="#d94a6a" stroke-width="1.6"/>
<text x="709" y="473" class="t eb" font-size="10" text-anchor="middle" fill="#d94a6a">⚠ 第1中和点までの体積は (x+y)、</text>
<text x="709" y="488" class="t eb" font-size="10" text-anchor="middle" fill="#d94a6a">第2中和点までの「差」が y にあたる</text>
</svg>
