<svg xmlns="http://www.w3.org/2000/svg" viewBox="0 0 560 400" width="560" height="400" role="img"><style>text{font-family:'Helvetica Neue',Arial,sans-serif;font-size:20px;fill:#1f2937}.it{font-style:italic}.s{font-size:16px;fill:#374151}.pt{fill:#111827}.ln{stroke:#111827;stroke-width:2.2;fill:none}.th{stroke:#111827;stroke-width:1.4;fill:none}.ds{stroke:#111827;stroke-width:1.6;stroke-dasharray:6 5;fill:none}.c{stroke:#2563eb;stroke-width:2.2;fill:none}.r{stroke:#dc2626;stroke-width:2;fill:none}.fill{fill:#dbeafe;stroke:none;opacity:.7}</style><rect width="560" height="400" fill="#ffffff"/><circle cx="290.0" cy="205.0" r="150.0" class="ds"/><polygon points="160.1,280.0 251.2,349.9 419.9,280.0 290.0,55.0" class="ln"/><line x1="160.1" y1="280.0" x2="419.9" y2="280.0" class="ln"/><line x1="251.2" y1="349.9" x2="290.0" y2="55.0" class="ln"/><line x1="160.1" y1="280.0" x2="266.2" y2="236.1" class="th"/><circle cx="266.2" cy="236.1" r="4" class="pt"/><text x="136.1" y="288.0" class="it">A</text><text x="243.2" y="375.9" class="it">B</text><text x="429.9" y="288.0" class="it">C</text><text x="284.0" y="43.0" class="it">D</text><text x="276.2" y="230.1" class="it">E</text><line x1="217.7" y1="166.2" x2="229.9" y2="173.2" class="th"/><line x1="220.2" y1="161.8" x2="232.4" y2="168.8" class="th"/><line x1="359.8" y1="161.8" x2="347.6" y2="168.8" class="th"/><line x1="362.3" y1="166.2" x2="350.1" y2="173.2" class="th"/><line x1="287.5" y1="273.0" x2="287.5" y2="287.0" class="th"/><line x1="292.5" y1="273.0" x2="292.5" y2="287.0" class="th"/><line x1="209.9" y1="309.4" x2="201.4" y2="320.5" class="th"/><line x1="251.7" y1="292.1" x2="265.6" y2="293.9" class="th"/><text x="257.2" y="335.9" class="s">120°</text><text x="183.6" y="324.9" class="s">3</text><text x="345.5" y="326.9" class="s">5</text></svg>